<svg width="26" height="26" viewBox="0 0 26 26" fill="none" xmlns="http://www.w3.org/2000/svg">
<g id="Iconly/Light/Notification">
<g id="Notification">
<path id="Stroke 1 (Stroke)" fill-rule="evenodd" clip-rule="evenodd" d="M4.76211 8.60729C4.76211 5.02114 8.08679 1.16675 13 1.16675C17.9133 1.16675 21.2379 5.02114 21.2379 8.60729C21.2379 9.48315 21.3493 10.0883 21.4975 10.5476C21.6463 11.0088 21.8446 11.3643 22.0816 11.7611C22.1058 11.8016 22.1307 11.843 22.1563 11.8855C22.3737 12.2465 22.6353 12.681 22.8346 13.2026C23.0659 13.808 23.2084 14.5066 23.2084 15.4056C23.2084 15.4345 23.2071 15.4633 23.2046 15.4921C23.1234 16.4277 22.8441 17.2605 22.3046 17.9583C21.7679 18.6525 21.031 19.139 20.1574 19.4811C18.4585 20.1464 16.0511 20.335 13 20.335C9.95055 20.335 7.54314 20.1495 5.84422 19.4859C4.97031 19.1445 4.23288 18.6583 3.69579 17.9631C3.15607 17.2644 2.87683 16.43 2.79543 15.4921C2.79294 15.4633 2.79169 15.4345 2.79169 15.4056C2.79169 14.5066 2.9341 13.808 3.16545 13.2026C3.36479 12.681 3.62638 12.2465 3.84372 11.8855C3.8693 11.8431 3.89426 11.8016 3.91844 11.7611C4.15549 11.3643 4.35374 11.0088 4.50253 10.5476C4.65072 10.0883 4.76211 9.48315 4.76211 8.60729ZM13 3.16675C9.14859 3.16675 6.76211 6.168 6.76211 8.60729C6.76211 9.65991 6.62719 10.4759 6.40592 11.1617C6.18526 11.8456 5.89091 12.3591 5.63536 12.7869C5.61044 12.8286 5.58616 12.8691 5.56249 12.9086C5.3364 13.2857 5.16644 13.5692 5.03368 13.9166C4.89861 14.27 4.79626 14.713 4.79184 15.3617C4.85147 15.9798 5.0261 16.4136 5.2785 16.7403C5.53928 17.0779 5.94154 17.3767 6.57195 17.623C7.88167 18.1346 9.94141 18.335 13 18.335C16.0581 18.335 18.1184 18.1318 19.4281 17.6188C20.0588 17.3718 20.4615 17.0725 20.7224 16.735C20.9747 16.4086 21.1489 15.9763 21.2082 15.3617C21.2038 14.7129 21.1014 14.27 20.9664 13.9166C20.8336 13.5692 20.6637 13.2857 20.4376 12.9086C20.4139 12.8691 20.3896 12.8286 20.3647 12.7869C20.1091 12.3591 19.8148 11.8456 19.5941 11.1617C19.3729 10.4759 19.2379 9.65991 19.2379 8.60729C19.2379 6.168 16.8515 3.16675 13 3.16675Z" fill="#555555"/>
<path id="Stroke 3 (Stroke)" fill-rule="evenodd" clip-rule="evenodd" d="M9.64438 21.8516C10.0552 21.4825 10.6875 21.5163 11.0566 21.9271C12.1474 23.141 13.7603 23.1305 14.8448 21.9263C15.2144 21.5159 15.8467 21.4828 16.2571 21.8524C16.6675 22.222 16.7005 22.8543 16.3309 23.2647C14.4598 25.3424 11.4621 25.3707 9.56892 23.2638C9.19979 22.853 9.23358 22.2208 9.64438 21.8516Z" fill="#555555"/>
</g>
</g>
</svg>
