<svg width="11" height="11" viewBox="0 0 11 11" fill="none" xmlns="http://www.w3.org/2000/svg">
<path d="M3.83385 3.85733L4.14122 3.81471L4.28408 3.53926L5.56895 1.06195C5.56897 1.06191 5.56899 1.06187 5.56901 1.06183C5.57056 1.05886 5.57133 1.0583 5.57092 1.05872C5.57065 1.05899 5.57085 1.05866 5.57226 1.05787C5.57577 1.0559 5.58539 1.0521 5.60007 1.05215C5.61481 1.05219 5.62533 1.0561 5.63001 1.05874L5.63198 1.06001L5.63241 1.06037L5.63246 1.06042L5.63263 1.06064L5.63393 1.06282L5.63394 1.06284L6.91834 3.53926L7.06121 3.81471L7.36857 3.85733L10.2436 4.2559L10.244 4.25596C10.2468 4.25634 10.2492 4.25678 10.2513 4.25724L8.18645 6.17058L7.94539 6.39396L8.00383 6.71737L8.49308 9.42506C8.48573 9.42955 8.47687 9.43251 8.46856 9.43324C8.46142 9.43387 8.45318 9.43316 8.44151 9.42733L8.44141 9.42728L5.86947 8.14173L5.60121 8.00764L5.33295 8.14173L2.76101 9.42728L2.75916 9.42821C2.74771 9.43398 2.73995 9.43456 2.73341 9.43399C2.72539 9.43329 2.7166 9.43035 2.70923 9.42572L3.19859 6.71737L3.25703 6.39396L3.01597 6.17058L0.951143 4.25724C0.953247 4.25678 0.955672 4.25634 0.958449 4.25596L0.958866 4.2559L3.83385 3.85733ZM8.4958 9.44004L9.08622 9.33336C9.17478 9.8255 8.62969 10.1923 8.17315 9.96397L8.4958 9.44004Z" fill="white" stroke="#7AC751" stroke-width="1.2"/>
</svg>
